<svg width="2400" height="920" viewBox="0 0 2400 920" fill="none" xmlns="http://www.w3.org/2000/svg">
<g opacity="0.6">
<line y1="-0.5" x2="1179" y2="-0.5" transform="matrix(-1 0 0 1 1200 335)" stroke="url(#paint0_linear_16_4404)"/>
<line y1="-0.5" x2="1179" y2="-0.5" transform="matrix(-1 0 0 1 1200 145)" stroke="url(#paint1_linear_16_4404)"/>
<line y1="-0.5" x2="1179" y2="-0.5" transform="matrix(-1 0 0 1 1200 525)" stroke="url(#paint2_linear_16_4404)"/>
<line y1="-0.5" x2="1179" y2="-0.5" transform="matrix(-1 0 0 1 1200 715)" stroke="url(#paint3_linear_16_4404)"/>
<line x1="1200" y1="334.5" x2="2379" y2="334.5" stroke="url(#paint4_linear_16_4404)"/>
<line x1="1200" y1="144.5" x2="2379" y2="144.5" stroke="url(#paint5_linear_16_4404)"/>
<line x1="1200" y1="524.5" x2="2379" y2="524.5" stroke="url(#paint6_linear_16_4404)"/>
<line x1="1200" y1="714.5" x2="2379" y2="714.5" stroke="url(#paint7_linear_16_4404)"/>
<line y1="-0.5" x2="444.5" y2="-0.5" transform="matrix(0 -1 -1 0 2044 450.5)" stroke="url(#paint8_linear_16_4404)"/>
<line y1="-0.5" x2="444.5" y2="-0.5" transform="matrix(0 -1 -1 0 1800 450.5)" stroke="url(#paint9_linear_16_4404)"/>
<line y1="-0.5" x2="444.5" y2="-0.5" transform="matrix(0 -1 -1 0 1556 450.5)" stroke="url(#paint10_linear_16_4404)"/>
<line y1="-0.5" x2="444.5" y2="-0.5" transform="matrix(0 -1 -1 0 1312 450.5)" stroke="url(#paint11_linear_16_4404)"/>
<line y1="-0.5" x2="444.5" y2="-0.5" transform="matrix(0 -1 -1 0 1068 450.5)" stroke="url(#paint12_linear_16_4404)"/>
<line y1="-0.5" x2="444.5" y2="-0.5" transform="matrix(0 -1 -1 0 824 450.5)" stroke="url(#paint13_linear_16_4404)"/>
<line y1="-0.5" x2="444.5" y2="-0.5" transform="matrix(0 -1 -1 0 580 450.5)" stroke="url(#paint14_linear_16_4404)"/>
<line y1="-0.5" x2="444.5" y2="-0.5" transform="matrix(0 -1 -1 0 336 450.5)" stroke="url(#paint15_linear_16_4404)"/>
<line x1="2044.5" y1="450.5" x2="2044.5" y2="895" stroke="url(#paint16_linear_16_4404)"/>
<line x1="1800.5" y1="450.5" x2="1800.5" y2="895" stroke="url(#paint17_linear_16_4404)"/>
<line x1="1556.5" y1="450.5" x2="1556.5" y2="895" stroke="url(#paint18_linear_16_4404)"/>
<line x1="1312.5" y1="450.5" x2="1312.5" y2="895" stroke="url(#paint19_linear_16_4404)"/>
<line x1="1068.5" y1="450.5" x2="1068.5" y2="895" stroke="url(#paint20_linear_16_4404)"/>
<line x1="824.5" y1="450.5" x2="824.5" y2="895" stroke="url(#paint21_linear_16_4404)"/>
<line x1="580.5" y1="450.5" x2="580.5" y2="895" stroke="url(#paint22_linear_16_4404)"/>
<line x1="336.5" y1="450.5" x2="336.5" y2="895" stroke="url(#paint23_linear_16_4404)"/>
</g>
<g opacity="0.04">
<path d="M882.645 426.553L957.384 424.424L994.966 482.903C994.966 482.903 918.108 492.722 882.645 426.553Z" fill="url(#paint24_linear_16_4404)"/>
<path d="M1017.51 421.869L957.324 424.425L928.368 379C928.368 379 983.189 379.282 1017.52 421.869H1017.51Z" fill="url(#paint25_linear_16_4404)"/>
</g>
<g opacity="0.04">
<path d="M633 617.553L707.739 615.425L745.321 673.903C745.321 673.903 668.463 683.722 633 617.553Z" fill="url(#paint26_linear_16_4404)"/>
<path d="M767.865 612.869L707.676 615.425L678.721 570C678.721 570 733.541 570.282 767.873 612.869H767.865Z" fill="url(#paint27_linear_16_4404)"/>
</g>
<g opacity="0.04">
<path d="M632.996 238.553L707.735 236.425L745.318 294.903C745.318 294.903 668.46 304.722 632.996 238.553Z" fill="url(#paint28_linear_16_4404)"/>
<path d="M767.862 233.869L707.672 236.425L678.717 191C678.717 191 733.537 191.282 767.869 233.869H767.862Z" fill="url(#paint29_linear_16_4404)"/>
</g>
<g opacity="0.04">
<path d="M392.645 422.97L467.384 420.842L504.966 479.32C504.966 479.32 428.108 489.139 392.645 422.97Z" fill="url(#paint30_linear_16_4404)"/>
<path d="M527.51 418.286L467.321 420.842L438.365 375.417C438.365 375.417 493.186 375.699 527.518 418.286H527.51Z" fill="url(#paint31_linear_16_4404)"/>
</g>
<g opacity="0.04">
<path d="M1122.64 238.553L1197.38 236.424L1234.96 294.903C1234.96 294.903 1158.1 304.722 1122.64 238.553Z" fill="url(#paint32_linear_16_4404)"/>
<path d="M1257.51 233.869L1197.32 236.425L1168.36 191C1168.36 191 1223.18 191.282 1257.52 233.869H1257.51Z" fill="url(#paint33_linear_16_4404)"/>
</g>
<g opacity="0.04">
<path d="M1122.64 617.553L1197.38 615.425L1234.96 673.903C1234.96 673.903 1158.1 683.722 1122.64 617.553Z" fill="url(#paint34_linear_16_4404)"/>
<path d="M1257.51 612.869L1197.32 615.425L1168.36 570C1168.36 570 1223.18 570.282 1257.52 612.869H1257.51Z" fill="url(#paint35_linear_16_4404)"/>
</g>
<g opacity="0.04">
<path d="M1362.64 426.553L1437.38 424.424L1474.97 482.903C1474.97 482.903 1398.11 492.722 1362.64 426.553Z" fill="url(#paint36_linear_16_4404)"/>
<path d="M1497.51 421.869L1437.32 424.425L1408.37 379C1408.37 379 1463.19 379.282 1497.52 421.869H1497.51Z" fill="url(#paint37_linear_16_4404)"/>
</g>
<g opacity="0.04">
<path d="M1602.64 232.553L1677.38 230.424L1714.96 288.903C1714.96 288.903 1638.1 298.722 1602.64 232.553Z" fill="url(#paint38_linear_16_4404)"/>
<path d="M1737.51 227.869L1677.32 230.425L1648.36 185C1648.36 185 1703.18 185.282 1737.52 227.869H1737.51Z" fill="url(#paint39_linear_16_4404)"/>
</g>
<g opacity="0.04">
<path d="M1602.64 617.553L1677.38 615.425L1714.96 673.903C1714.96 673.903 1638.1 683.722 1602.64 617.553Z" fill="url(#paint40_linear_16_4404)"/>
<path d="M1737.51 612.869L1677.32 615.425L1648.36 570C1648.36 570 1703.18 570.282 1737.52 612.869H1737.51Z" fill="url(#paint41_linear_16_4404)"/>
</g>
<g opacity="0.04">
<path d="M1852.64 426.553L1927.38 424.424L1964.96 482.903C1964.96 482.903 1888.1 492.722 1852.64 426.553Z" fill="url(#paint42_linear_16_4404)"/>
<path d="M1987.51 421.869L1927.32 424.425L1898.36 379C1898.36 379 1953.18 379.282 1987.52 421.869H1987.51Z" fill="url(#paint43_linear_16_4404)"/>
</g>
<ellipse cx="1190" cy="423" rx="793" ry="361" fill="url(#paint44_radial_16_4404)"/>
<defs>
<linearGradient id="paint0_linear_16_4404" x1="0" y1="0.5" x2="1179" y2="0.5" gradientUnits="userSpaceOnUse">
<stop stop-color="#1462D0" stop-opacity="0.2"/>
<stop offset="0.802885" stop-color="#1462D0" stop-opacity="0.08"/>
<stop offset="1" stop-color="#1462D0" stop-opacity="0"/>
</linearGradient>
<linearGradient id="paint1_linear_16_4404" x1="0" y1="0.5" x2="1179" y2="0.5" gradientUnits="userSpaceOnUse">
<stop stop-color="#1462D0" stop-opacity="0.2"/>
<stop offset="0.802885" stop-color="#1462D0" stop-opacity="0.08"/>
<stop offset="1" stop-color="#1462D0" stop-opacity="0"/>
</linearGradient>
<linearGradient id="paint2_linear_16_4404" x1="0" y1="0.5" x2="1179" y2="0.5" gradientUnits="userSpaceOnUse">
<stop stop-color="#1462D0" stop-opacity="0.2"/>
<stop offset="0.802885" stop-color="#1462D0" stop-opacity="0.08"/>
<stop offset="1" stop-color="#1462D0" stop-opacity="0"/>
</linearGradient>
<linearGradient id="paint3_linear_16_4404" x1="0" y1="0.5" x2="1179" y2="0.5" gradientUnits="userSpaceOnUse">
<stop stop-color="#1462D0" stop-opacity="0.2"/>
<stop offset="0.802885" stop-color="#1462D0" stop-opacity="0.08"/>
<stop offset="1" stop-color="#1462D0" stop-opacity="0"/>
</linearGradient>
<linearGradient id="paint4_linear_16_4404" x1="1200" y1="335.5" x2="2379" y2="335.5" gradientUnits="userSpaceOnUse">
<stop stop-color="#1462D0" stop-opacity="0.2"/>
<stop offset="0.802885" stop-color="#1462D0" stop-opacity="0.08"/>
<stop offset="1" stop-color="#1462D0" stop-opacity="0"/>
</linearGradient>
<linearGradient id="paint5_linear_16_4404" x1="1200" y1="145.5" x2="2379" y2="145.5" gradientUnits="userSpaceOnUse">
<stop stop-color="#1462D0" stop-opacity="0.2"/>
<stop offset="0.802885" stop-color="#1462D0" stop-opacity="0.08"/>
<stop offset="1" stop-color="#1462D0" stop-opacity="0"/>
</linearGradient>
<linearGradient id="paint6_linear_16_4404" x1="1200" y1="525.5" x2="2379" y2="525.5" gradientUnits="userSpaceOnUse">
<stop stop-color="#1462D0" stop-opacity="0.2"/>
<stop offset="0.802885" stop-color="#1462D0" stop-opacity="0.08"/>
<stop offset="1" stop-color="#1462D0" stop-opacity="0"/>
</linearGradient>
<linearGradient id="paint7_linear_16_4404" x1="1200" y1="715.5" x2="2379" y2="715.5" gradientUnits="userSpaceOnUse">
<stop stop-color="#1462D0" stop-opacity="0.2"/>
<stop offset="0.802885" stop-color="#1462D0" stop-opacity="0.08"/>
<stop offset="1" stop-color="#1462D0" stop-opacity="0"/>
</linearGradient>
<linearGradient id="paint8_linear_16_4404" x1="0" y1="0.5" x2="444.5" y2="0.5" gradientUnits="userSpaceOnUse">
<stop stop-color="#1161AD" stop-opacity="0.2"/>
<stop offset="0.783654" stop-color="#1161AD" stop-opacity="0.08"/>
<stop offset="1" stop-color="#1161AD" stop-opacity="0"/>
</linearGradient>
<linearGradient id="paint9_linear_16_4404" x1="0" y1="0.5" x2="444.5" y2="0.5" gradientUnits="userSpaceOnUse">
<stop stop-color="#1161AD" stop-opacity="0.2"/>
<stop offset="0.783654" stop-color="#1161AD" stop-opacity="0.08"/>
<stop offset="1" stop-color="#1161AD" stop-opacity="0"/>
</linearGradient>
<linearGradient id="paint10_linear_16_4404" x1="0" y1="0.5" x2="444.5" y2="0.5" gradientUnits="userSpaceOnUse">
<stop stop-color="#1161AD" stop-opacity="0.2"/>
<stop offset="0.783654" stop-color="#1161AD" stop-opacity="0.08"/>
<stop offset="1" stop-color="#1161AD" stop-opacity="0"/>
</linearGradient>
<linearGradient id="paint11_linear_16_4404" x1="0" y1="0.5" x2="444.5" y2="0.5" gradientUnits="userSpaceOnUse">
<stop stop-color="#1161AD" stop-opacity="0.2"/>
<stop offset="0.783654" stop-color="#1161AD" stop-opacity="0.08"/>
<stop offset="1" stop-color="#1161AD" stop-opacity="0"/>
</linearGradient>
<linearGradient id="paint12_linear_16_4404" x1="0" y1="0.5" x2="444.5" y2="0.5" gradientUnits="userSpaceOnUse">
<stop stop-color="#1161AD" stop-opacity="0.2"/>
<stop offset="0.783654" stop-color="#1161AD" stop-opacity="0.08"/>
<stop offset="1" stop-color="#1161AD" stop-opacity="0"/>
</linearGradient>
<linearGradient id="paint13_linear_16_4404" x1="0" y1="0.5" x2="444.5" y2="0.5" gradientUnits="userSpaceOnUse">
<stop stop-color="#1161AD" stop-opacity="0.2"/>
<stop offset="0.783654" stop-color="#1161AD" stop-opacity="0.08"/>
<stop offset="1" stop-color="#1161AD" stop-opacity="0"/>
</linearGradient>
<linearGradient id="paint14_linear_16_4404" x1="0" y1="0.5" x2="444.5" y2="0.5" gradientUnits="userSpaceOnUse">
<stop stop-color="#1161AD" stop-opacity="0.2"/>
<stop offset="0.783654" stop-color="#1161AD" stop-opacity="0.08"/>
<stop offset="1" stop-color="#1161AD" stop-opacity="0"/>
</linearGradient>
<linearGradient id="paint15_linear_16_4404" x1="0" y1="0.5" x2="444.5" y2="0.5" gradientUnits="userSpaceOnUse">
<stop stop-color="#1161AD" stop-opacity="0.2"/>
<stop offset="0.783654" stop-color="#1161AD" stop-opacity="0.08"/>
<stop offset="1" stop-color="#1161AD" stop-opacity="0"/>
</linearGradient>
<linearGradient id="paint16_linear_16_4404" x1="2043.5" y1="450.5" x2="2043.5" y2="895" gradientUnits="userSpaceOnUse">
<stop stop-color="#1161AD" stop-opacity="0.2"/>
<stop offset="0.783654" stop-color="#1161AD" stop-opacity="0.08"/>
<stop offset="1" stop-color="#1161AD" stop-opacity="0"/>
</linearGradient>
<linearGradient id="paint17_linear_16_4404" x1="1799.5" y1="450.5" x2="1799.5" y2="895" gradientUnits="userSpaceOnUse">
<stop stop-color="#1161AD" stop-opacity="0.2"/>
<stop offset="0.783654" stop-color="#1161AD" stop-opacity="0.08"/>
<stop offset="1" stop-color="#1161AD" stop-opacity="0"/>
</linearGradient>
<linearGradient id="paint18_linear_16_4404" x1="1555.5" y1="450.5" x2="1555.5" y2="895" gradientUnits="userSpaceOnUse">
<stop stop-color="#1161AD" stop-opacity="0.2"/>
<stop offset="0.783654" stop-color="#1161AD" stop-opacity="0.08"/>
<stop offset="1" stop-color="#1161AD" stop-opacity="0"/>
</linearGradient>
<linearGradient id="paint19_linear_16_4404" x1="1311.5" y1="450.5" x2="1311.5" y2="895" gradientUnits="userSpaceOnUse">
<stop stop-color="#1161AD" stop-opacity="0.2"/>
<stop offset="0.783654" stop-color="#1161AD" stop-opacity="0.08"/>
<stop offset="1" stop-color="#1161AD" stop-opacity="0"/>
</linearGradient>
<linearGradient id="paint20_linear_16_4404" x1="1067.5" y1="450.5" x2="1067.5" y2="895" gradientUnits="userSpaceOnUse">
<stop stop-color="#1161AD" stop-opacity="0.2"/>
<stop offset="0.783654" stop-color="#1161AD" stop-opacity="0.08"/>
<stop offset="1" stop-color="#1161AD" stop-opacity="0"/>
</linearGradient>
<linearGradient id="paint21_linear_16_4404" x1="823.5" y1="450.5" x2="823.5" y2="895" gradientUnits="userSpaceOnUse">
<stop stop-color="#1161AD" stop-opacity="0.2"/>
<stop offset="0.783654" stop-color="#1161AD" stop-opacity="0.08"/>
<stop offset="1" stop-color="#1161AD" stop-opacity="0"/>
</linearGradient>
<linearGradient id="paint22_linear_16_4404" x1="579.5" y1="450.5" x2="579.5" y2="895" gradientUnits="userSpaceOnUse">
<stop stop-color="#1161AD" stop-opacity="0.2"/>
<stop offset="0.783654" stop-color="#1161AD" stop-opacity="0.08"/>
<stop offset="1" stop-color="#1161AD" stop-opacity="0"/>
</linearGradient>
<linearGradient id="paint23_linear_16_4404" x1="335.5" y1="450.5" x2="335.5" y2="895" gradientUnits="userSpaceOnUse">
<stop stop-color="#1161AD" stop-opacity="0.2"/>
<stop offset="0.783654" stop-color="#1161AD" stop-opacity="0.08"/>
<stop offset="1" stop-color="#1161AD" stop-opacity="0"/>
</linearGradient>
<linearGradient id="paint24_linear_16_4404" x1="956.511" y1="423.921" x2="928.867" y2="471.577" gradientUnits="userSpaceOnUse">
<stop stop-color="#19BDFE"/>
<stop offset="1" stop-color="#1064B1"/>
</linearGradient>
<linearGradient id="paint25_linear_16_4404" x1="993.327" y1="435.907" x2="952.278" y2="365.135" gradientUnits="userSpaceOnUse">
<stop stop-color="#19BDFE"/>
<stop offset="1" stop-color="#1064B1"/>
</linearGradient>
<linearGradient id="paint26_linear_16_4404" x1="706.866" y1="614.921" x2="679.222" y2="662.577" gradientUnits="userSpaceOnUse">
<stop stop-color="#19BDFE"/>
<stop offset="1" stop-color="#1064B1"/>
</linearGradient>
<linearGradient id="paint27_linear_16_4404" x1="743.679" y1="626.907" x2="702.63" y2="556.135" gradientUnits="userSpaceOnUse">
<stop stop-color="#19BDFE"/>
<stop offset="1" stop-color="#1064B1"/>
</linearGradient>
<linearGradient id="paint28_linear_16_4404" x1="706.862" y1="235.921" x2="679.218" y2="283.577" gradientUnits="userSpaceOnUse">
<stop stop-color="#19BDFE"/>
<stop offset="1" stop-color="#1064B1"/>
</linearGradient>
<linearGradient id="paint29_linear_16_4404" x1="743.675" y1="247.907" x2="702.626" y2="177.135" gradientUnits="userSpaceOnUse">
<stop stop-color="#19BDFE"/>
<stop offset="1" stop-color="#1064B1"/>
</linearGradient>
<linearGradient id="paint30_linear_16_4404" x1="466.511" y1="420.338" x2="438.867" y2="467.994" gradientUnits="userSpaceOnUse">
<stop stop-color="#19BDFE"/>
<stop offset="1" stop-color="#1064B1"/>
</linearGradient>
<linearGradient id="paint31_linear_16_4404" x1="503.324" y1="432.324" x2="462.275" y2="361.552" gradientUnits="userSpaceOnUse">
<stop stop-color="#19BDFE"/>
<stop offset="1" stop-color="#1064B1"/>
</linearGradient>
<linearGradient id="paint32_linear_16_4404" x1="1196.51" y1="235.921" x2="1168.86" y2="283.577" gradientUnits="userSpaceOnUse">
<stop stop-color="#19BDFE"/>
<stop offset="1" stop-color="#1064B1"/>
</linearGradient>
<linearGradient id="paint33_linear_16_4404" x1="1233.32" y1="247.907" x2="1192.27" y2="177.135" gradientUnits="userSpaceOnUse">
<stop stop-color="#19BDFE"/>
<stop offset="1" stop-color="#1064B1"/>
</linearGradient>
<linearGradient id="paint34_linear_16_4404" x1="1196.51" y1="614.921" x2="1168.86" y2="662.577" gradientUnits="userSpaceOnUse">
<stop stop-color="#19BDFE"/>
<stop offset="1" stop-color="#1064B1"/>
</linearGradient>
<linearGradient id="paint35_linear_16_4404" x1="1233.32" y1="626.907" x2="1192.27" y2="556.135" gradientUnits="userSpaceOnUse">
<stop stop-color="#19BDFE"/>
<stop offset="1" stop-color="#1064B1"/>
</linearGradient>
<linearGradient id="paint36_linear_16_4404" x1="1436.51" y1="423.921" x2="1408.87" y2="471.577" gradientUnits="userSpaceOnUse">
<stop stop-color="#19BDFE"/>
<stop offset="1" stop-color="#1064B1"/>
</linearGradient>
<linearGradient id="paint37_linear_16_4404" x1="1473.33" y1="435.907" x2="1432.28" y2="365.135" gradientUnits="userSpaceOnUse">
<stop stop-color="#19BDFE"/>
<stop offset="1" stop-color="#1064B1"/>
</linearGradient>
<linearGradient id="paint38_linear_16_4404" x1="1676.51" y1="229.921" x2="1648.86" y2="277.577" gradientUnits="userSpaceOnUse">
<stop stop-color="#19BDFE"/>
<stop offset="1" stop-color="#1064B1"/>
</linearGradient>
<linearGradient id="paint39_linear_16_4404" x1="1713.32" y1="241.907" x2="1672.27" y2="171.135" gradientUnits="userSpaceOnUse">
<stop stop-color="#19BDFE"/>
<stop offset="1" stop-color="#1064B1"/>
</linearGradient>
<linearGradient id="paint40_linear_16_4404" x1="1676.51" y1="614.921" x2="1648.86" y2="662.577" gradientUnits="userSpaceOnUse">
<stop stop-color="#19BDFE"/>
<stop offset="1" stop-color="#1064B1"/>
</linearGradient>
<linearGradient id="paint41_linear_16_4404" x1="1713.32" y1="626.907" x2="1672.27" y2="556.135" gradientUnits="userSpaceOnUse">
<stop stop-color="#19BDFE"/>
<stop offset="1" stop-color="#1064B1"/>
</linearGradient>
<linearGradient id="paint42_linear_16_4404" x1="1926.51" y1="423.921" x2="1898.86" y2="471.577" gradientUnits="userSpaceOnUse">
<stop stop-color="#19BDFE"/>
<stop offset="1" stop-color="#1064B1"/>
</linearGradient>
<linearGradient id="paint43_linear_16_4404" x1="1963.32" y1="435.907" x2="1922.27" y2="365.135" gradientUnits="userSpaceOnUse">
<stop stop-color="#19BDFE"/>
<stop offset="1" stop-color="#1064B1"/>
</linearGradient>
<radialGradient id="paint44_radial_16_4404" cx="0" cy="0" r="1" gradientTransform="matrix(-45.5747 342.097 -751.476 -20.7471 1190 423)" gradientUnits="userSpaceOnUse">
<stop stop-color="#1462D0" stop-opacity="0.1"/>
<stop offset="1" stop-color="#F4F9FD" stop-opacity="0.1"/>
</radialGradient>
</defs>
</svg>
